# xmcd CD database file
#
# Track frame offsets:
#	150
#	51201
#	82223
#	142862
#	162061
#	219507
#	234160
#	282275
#	295649
#
# Disc length: 4439 seconds
#
# Revision: 0
# Processed by: cddbd v1.5.2PL0 Copyright (c) Steve Scherf et al.
# Submitted via: CDex 1.70beta2
#
DISCID=78115509
DTITLE=Hauke Nissen - Ein Spaziergang am Strand - CD1
DYEAR=2011
DGENRE=New Age
TTITLE0=Ein Spaziergang am Strand
TTITLE1=Sommerbrise
TTITLE2=Stilles Glück am Strand
TTITLE3=Schwebende Wolke
TTITLE4=Magischer Himmel
TTITLE5=Wellenglanz
TTITLE6=Frieden nach dem Sturm
TTITLE7=Ausklang II
TTITLE8=Sanfte Sommerwellen
EXTD=YEAR: 2011
EXTT0=
EXTT1=
EXTT2=
EXTT3=
EXTT4=
EXTT5=
EXTT6=
EXTT7=
EXTT8=
PLAYORDER=
